<?xml version="1.0" standalone="no"?>
<!DOCTYPE svg PUBLIC "-//W3C//DTD SVG 20010904//EN"
 "http://www.w3.org/TR/2001/REC-SVG-20010904/DTD/svg10.dtd">
<svg version="1.0" xmlns="http://www.w3.org/2000/svg"
 width="600.000000pt" height="600.000000pt" viewBox="0 0 600.000000 600.000000"
 preserveAspectRatio="xMidYMid meet">
<metadata>
Created by potrace 1.14, written by Peter Selinger 2001-2017
</metadata>
<g transform="translate(0.000000,600.000000) scale(0.100000,-0.100000)"
fill="#000000" stroke="none">
<path d="M2973 5927 c-52 -29 -117 -102 -165 -185 -15 -26 -31 -46 -37 -45 -5
1 -39 23 -74 48 -166 115 -329 153 -437 99 -77 -38 -159 -148 -176 -236 -14
-78 -13 -77 -146 -137 -124 -57 -310 -162 -396 -225 -192 -138 -412 -341 -532
-490 -30 -37 -65 -80 -77 -94 l-22 -27 -2 35 c-1 19 -1 40 0 45 0 6 -12 35
-27 65 -52 104 -132 112 -214 23 -68 -74 -249 -262 -300 -312 -72 -71 -94
-140 -64 -200 27 -52 93 -75 163 -58 17 4 23 1 24 -11 2 -20 2 -74 0 -84 -1
-3 -41 -36 -91 -72 -49 -37 -91 -72 -91 -79 -2 -24 2 -142 6 -157 2 -8 7 -35
10 -60 3 -25 11 -63 17 -85 6 -22 13 -49 15 -60 5 -30 60 -144 91 -190 32 -48
119 -133 144 -141 23 -7 23 -20 1 -20 -38 -1 -115 -15 -131 -24 -9 -5 -43 -21
-75 -36 -104 -48 -208 -167 -250 -284 -25 -71 -30 -100 -30 -185 0 -148 53
-270 162 -375 102 -97 232 -149 368 -146 l73 2 -37 -40 c-21 -22 -43 -46 -50
-53 -15 -17 -63 -119 -68 -145 -2 -11 -7 -28 -10 -37 -8 -26 -8 -128 -1 -181
16 -113 106 -290 237 -465 71 -95 92 -120 186 -218 95 -99 242 -226 333 -287
12 -8 40 -27 61 -43 21 -15 41 -27 45 -27 3 0 24 -13 47 -29 23 -15 60 -37 82
-49 130 -65 267 -132 271 -132 3 0 24 -8 47 -19 48 -21 153 -60 247 -91 64
-22 66 -24 94 -82 34 -69 105 -145 162 -174 30 -15 59 -19 129 -18 103 0 158
19 223 78 l39 36 27 -40 c95 -144 233 -183 373 -107 29 16 113 108 113 125 0
4 4 13 9 20 6 10 18 3 48 -26 21 -21 61 -49 88 -62 88 -43 240 -37 301 12 44
36 94 86 94 96 0 6 4 12 8 14 4 1 21 30 38 62 26 53 34 61 74 74 167 52 607
254 640 293 3 3 16 12 30 19 24 12 174 118 214 150 117 96 277 255 362 360 76
95 134 177 134 190 0 6 3 10 8 10 4 0 12 10 18 23 6 12 26 50 44 85 18 35 46
100 61 145 24 71 27 95 24 177 -2 69 -9 110 -25 150 -28 71 -74 143 -111 174
-16 14 -29 27 -29 29 0 2 33 4 73 3 39 0 91 3 114 7 48 7 140 43 164 64 8 7
20 13 26 13 9 0 116 102 138 131 97 132 124 335 65 492 -70 187 -232 313 -438
341 -19 3 -36 6 -38 8 -2 2 14 14 34 27 96 60 198 233 231 392 6 30 14 65 16
79 3 14 8 68 12 120 5 95 5 95 -22 115 -15 11 -55 41 -89 66 l-62 47 1 53 c2
58 -1 56 65 46 35 -5 73 10 101 39 25 27 30 42 30 95 -1 54 -17 77 -134 196
-151 154 -247 256 -247 263 0 14 -64 42 -96 42 -72 0 -123 -69 -133 -180 l-6
-63 -45 58 c-128 167 -333 373 -480 483 -18 14 -38 30 -45 35 -6 6 -18 15 -26
20 -9 6 -60 40 -115 76 -105 70 -260 153 -386 208 -43 19 -76 37 -73 41 7 12
-36 142 -62 184 -30 48 -85 101 -127 123 -102 53 -282 8 -451 -112 l-62 -45
-39 77 c-47 93 -123 173 -162 173 -15 -1 -37 -6 -49 -13z m227 -1282 c14 -3
36 -7 50 -9 77 -12 229 -59 326 -102 30 -13 57 -24 62 -25 4 -1 19 -10 34 -20
14 -10 29 -19 33 -19 3 0 39 -21 78 -47 40 -27 79 -51 87 -55 13 -6 13 -7 0
-8 -55 -7 -1747 -3 -1743 3 20 33 272 169 383 207 36 12 72 25 80 28 8 3 20 6
25 7 6 2 29 8 53 14 46 13 75 18 157 28 28 3 51 7 53 8 6 5 298 -4 322 -10z
m-1255 -2815 c41 -25 75 -48 75 -52 0 -5 4 -8 10 -8 5 0 75 -43 155 -95 80
-52 148 -95 151 -95 2 0 10 -5 17 -11 16 -14 178 -119 183 -119 3 0 10 -5 17
-10 7 -6 50 -36 97 -66 81 -52 83 -55 45 -48 -22 3 -58 11 -80 17 -22 6 -48
12 -57 14 -81 15 -314 111 -448 184 -47 25 -101 55 -120 65 -19 11 -37 21 -40
24 -3 3 -26 19 -52 35 -27 17 -48 33 -48 38 0 4 -5 7 -10 7 -6 0 -16 4 -23 10
-7 5 -59 46 -117 91 -58 45 -188 166 -290 269 -213 215 -239 232 -385 245 -27
2 -55 4 -60 5 -6 0 18 29 52 65 35 36 63 71 63 77 0 6 6 19 14 27 7 9 24 45
36 81 32 93 33 235 2 335 -29 96 -125 219 -214 276 l-51 33 62 12 c34 7 76 20
93 28 17 9 37 16 45 16 7 0 13 5 13 10 0 6 5 10 11 10 18 0 129 83 189 142 63
61 155 167 190 218 14 19 30 41 36 47 7 7 22 29 35 50 13 21 25 40 28 43 15
13 81 99 81 105 0 3 17 24 38 47 20 23 46 51 57 63 11 13 43 48 70 78 l50 56
3 -1137 2 -1137 75 -45z m2251 2247 c73 -78 95 -104 164 -192 30 -38 58 -71
62 -73 5 -2 8 -8 8 -13 0 -23 182 -252 272 -342 54 -54 98 -95 98 -92 0 3 9
-3 20 -13 11 -10 33 -25 48 -33 15 -8 29 -16 32 -19 22 -22 160 -70 203 -70
36 0 34 -12 -7 -34 -44 -23 -118 -95 -154 -149 -143 -213 -116 -488 66 -672
l49 -50 -61 1 c-121 1 -218 -44 -310 -144 -139 -150 -265 -271 -391 -374 -20
-16 -83 -63 -105 -78 -12 -8 -28 -20 -34 -25 -15 -13 -75 -52 -166 -107 -62
-38 -282 -150 -300 -154 -3 0 -12 -4 -20 -7 -22 -10 -74 -30 -80 -32 -3 -1
-36 -11 -75 -24 -38 -12 -77 -24 -85 -26 -51 -14 -105 -26 -138 -31 -38 -6
-17 10 193 139 28 17 55 35 60 40 6 4 46 31 90 59 181 115 200 127 211 136 5
5 21 15 34 22 46 25 225 143 235 155 7 9 10 384 10 1139 0 619 3 1126 6 1126
3 0 33 -28 65 -63z"/>
</g>
</svg>
